<svg width="64" height="64" viewBox="0 0 64 64" fill="none" xmlns="http://www.w3.org/2000/svg">
<rect width="64" height="64" fill="#2C70FF"/>
<path d="M22.5105 51C21.4501 51 20.5907 50.6709 19.9325 50.0127C19.3108 49.3544 19 48.4951 19 47.4346V15.346C19 14.2855 19.2925 13.4627 19.8776 12.8776C20.4993 12.2925 21.3404 12 22.4008 12H41.654C43.8847 12 45 12.9508 45 14.8523C45 16.7173 43.8847 17.6498 41.654 17.6498H25.9662V28.1814H40.557C42.7876 28.1814 43.903 29.1322 43.903 31.0338C43.903 32.8987 42.7876 33.8312 40.557 33.8312H25.9662V47.4346C25.9662 48.4951 25.6554 49.3544 25.0338 50.0127C24.4121 50.6709 23.571 51 22.5105 51Z" fill="white"/>
</svg>
