<svg width="275" height="66" viewBox="0 0 275 66" fill="none" xmlns="http://www.w3.org/2000/svg">
<path d="M5.08 52.432C3.688 52.432 2.56 52 1.696 51.136C0.88 50.272 0.472 49.144 0.472 47.752V5.632C0.472 4.24 0.856 3.16 1.624 2.392C2.44 1.624 3.544 1.24 4.936 1.24H30.208C33.136 1.24 34.6 2.488 34.6 4.984C34.6 7.432 33.136 8.656 30.208 8.656H9.616V22.48H28.768C31.696 22.48 33.16 23.728 33.16 26.224C33.16 28.672 31.696 29.896 28.768 29.896H9.616V47.752C9.616 49.144 9.208 50.272 8.392 51.136C7.576 52 6.472 52.432 5.08 52.432ZM47.8081 52.432C46.5121 52.432 45.4321 52.072 44.5681 51.352C43.7521 50.584 43.3441 49.504 43.3441 48.112V5.128C43.3441 3.736 43.7521 2.68 44.5681 1.96C45.4321 1.24 46.5121 0.879997 47.8081 0.879997C49.1041 0.879997 50.1841 1.24 51.0481 1.96C51.9121 2.68 52.3441 3.736 52.3441 5.128V48.112C52.3441 49.504 51.9121 50.584 51.0481 51.352C50.1841 52.072 49.1041 52.432 47.8081 52.432ZM89.4893 42.352C90.3053 42.352 90.9533 42.664 91.4333 43.288C91.9613 43.912 92.2253 44.752 92.2253 45.808C92.2253 47.296 91.3373 48.544 89.5613 49.552C87.9293 50.464 86.0813 51.208 84.0173 51.784C81.9533 52.312 79.9853 52.576 78.1133 52.576C72.4493 52.576 67.9613 50.944 64.6493 47.68C61.3373 44.416 59.6813 39.952 59.6813 34.288C59.6813 30.688 60.4013 27.496 61.8413 24.712C63.2813 21.928 65.2973 19.768 67.8893 18.232C70.5293 16.696 73.5053 15.928 76.8173 15.928C79.9853 15.928 82.7453 16.624 85.0973 18.016C87.4493 19.408 89.2733 21.376 90.5693 23.92C91.8653 26.464 92.5133 29.464 92.5133 32.92C92.5133 34.984 91.6013 36.016 89.7773 36.016H68.5373C68.8253 39.328 69.7613 41.776 71.3453 43.36C72.9293 44.896 75.2333 45.664 78.2573 45.664C79.7933 45.664 81.1373 45.472 82.2893 45.088C83.4893 44.704 84.8333 44.176 86.3213 43.504C87.7613 42.736 88.8173 42.352 89.4893 42.352ZM77.0333 22.264C74.5853 22.264 72.6173 23.032 71.1293 24.568C69.6893 26.104 68.8253 28.312 68.5373 31.192H84.8093C84.7133 28.264 83.9933 26.056 82.6493 24.568C81.3053 23.032 79.4333 22.264 77.0333 22.264ZM129.7 45.376C130.564 46.24 130.996 47.224 130.996 48.328C130.996 49.384 130.588 50.344 129.772 51.208C128.956 52.024 127.996 52.432 126.892 52.432C125.692 52.432 124.66 51.928 123.796 50.92L113.644 39.688L103.492 50.92C102.58 51.88 101.548 52.36 100.396 52.36C99.3402 52.36 98.4042 51.952 97.5882 51.136C96.7722 50.32 96.3642 49.384 96.3642 48.328C96.3642 47.224 96.7962 46.24 97.6602 45.376L108.172 33.928L98.2362 23.128C97.3722 22.264 96.9402 21.28 96.9402 20.176C96.9402 19.072 97.3482 18.136 98.1642 17.368C98.9802 16.552 99.9162 16.144 100.972 16.144C102.124 16.144 103.156 16.624 104.068 17.584L113.644 28.096L123.22 17.584C124.132 16.624 125.164 16.144 126.316 16.144C127.42 16.144 128.356 16.552 129.124 17.368C129.94 18.136 130.348 19.072 130.348 20.176C130.348 21.28 129.916 22.264 129.052 23.128L119.116 33.928L129.7 45.376ZM167.877 25.936C170.805 26.704 173.061 28.144 174.645 30.256C176.277 32.368 177.093 35.008 177.093 38.176C177.093 42.64 175.629 46.072 172.701 48.472C169.773 50.824 165.621 52 160.245 52H142.101C141.189 52 140.445 51.736 139.869 51.208C139.341 50.68 139.077 49.984 139.077 49.12V4.12C139.077 3.256 139.341 2.56 139.869 2.032C140.445 1.504 141.189 1.24 142.101 1.24H159.453C164.685 1.24 168.741 2.392 171.621 4.696C174.501 7 175.941 10.264 175.941 14.488C175.941 17.224 175.221 19.576 173.781 21.544C172.389 23.512 170.421 24.976 167.877 25.936ZM144.909 23.776H158.589C162.381 23.776 165.237 23.008 167.157 21.472C169.125 19.936 170.109 17.704 170.109 14.776C170.109 9.016 166.269 6.136 158.589 6.136H144.909V23.776ZM159.669 47.104C163.653 47.104 166.581 46.384 168.453 44.944C170.373 43.456 171.333 41.152 171.333 38.032C171.333 31.792 167.445 28.672 159.669 28.672H144.909V47.104H159.669ZM189.68 52.36C188.816 52.36 188.096 52.12 187.52 51.64C186.992 51.112 186.728 50.392 186.728 49.48V3.76C186.728 2.848 186.992 2.152 187.52 1.672C188.096 1.144 188.816 0.879997 189.68 0.879997C190.496 0.879997 191.168 1.144 191.696 1.672C192.272 2.152 192.56 2.848 192.56 3.76V49.48C192.56 50.392 192.272 51.112 191.696 51.64C191.168 52.12 190.496 52.36 189.68 52.36ZM218.007 52.504C214.695 52.504 211.767 51.76 209.223 50.272C206.727 48.784 204.783 46.672 203.391 43.936C202.047 41.152 201.375 37.936 201.375 34.288C201.375 30.64 202.047 27.448 203.391 24.712C204.783 21.928 206.727 19.792 209.223 18.304C211.767 16.816 214.695 16.072 218.007 16.072C221.319 16.072 224.247 16.816 226.791 18.304C229.335 19.792 231.279 21.928 232.623 24.712C234.015 27.448 234.711 30.64 234.711 34.288C234.711 37.936 234.015 41.152 232.623 43.936C231.279 46.672 229.335 48.784 226.791 50.272C224.247 51.76 221.319 52.504 218.007 52.504ZM218.007 47.68C221.463 47.68 224.103 46.552 225.927 44.296C227.799 41.992 228.735 38.656 228.735 34.288C228.735 30.016 227.799 26.728 225.927 24.424C224.055 22.072 221.415 20.896 218.007 20.896C214.599 20.896 211.959 22.072 210.087 24.424C208.215 26.728 207.279 30.016 207.279 34.288C207.279 38.608 208.191 41.92 210.015 44.224C211.887 46.528 214.551 47.68 218.007 47.68ZM271.84 16.216C272.752 16.216 273.472 16.48 274 17.008C274.528 17.536 274.792 18.232 274.792 19.096V49.624C274.792 54.856 273.448 58.792 270.76 61.432C268.072 64.12 264.088 65.464 258.808 65.464C253.672 65.464 249.4 64.456 245.992 62.44C244.264 61.48 243.4 60.376 243.4 59.128C243.4 58.456 243.568 57.904 243.904 57.472C244.288 57.04 244.768 56.824 245.344 56.824C245.824 56.824 246.688 57.16 247.936 57.832C249.616 58.696 251.272 59.392 252.904 59.92C254.536 60.448 256.48 60.712 258.736 60.712C262.144 60.712 264.712 59.8 266.44 57.976C268.168 56.2 269.032 53.584 269.032 50.128V43.936C268.024 46.192 266.464 47.92 264.352 49.12C262.288 50.32 259.84 50.92 257.008 50.92C253.936 50.92 251.2 50.2 248.8 48.76C246.448 47.32 244.6 45.28 243.256 42.64C241.96 40 241.312 36.952 241.312 33.496C241.312 30.04 241.96 26.992 243.256 24.352C244.6 21.712 246.448 19.672 248.8 18.232C251.2 16.792 253.936 16.072 257.008 16.072C259.792 16.072 262.216 16.672 264.28 17.872C266.344 19.072 267.904 20.776 268.96 22.984V19.096C268.96 18.232 269.2 17.536 269.68 17.008C270.208 16.48 270.928 16.216 271.84 16.216ZM258.16 46.096C261.52 46.096 264.16 44.992 266.08 42.784C268 40.528 268.96 37.432 268.96 33.496C268.96 29.608 268 26.56 266.08 24.352C264.208 22.096 261.568 20.968 258.16 20.968C254.752 20.968 252.064 22.096 250.096 24.352C248.176 26.56 247.216 29.608 247.216 33.496C247.216 37.432 248.176 40.528 250.096 42.784C252.064 44.992 254.752 46.096 258.16 46.096Z" fill="#2C70FF"/>
</svg>
